<?xml version="1.0" ?><svg style="enable-background:new 0 0 16 16;" version="1.1" viewBox="0 0 16 16" xml:space="preserve" xmlns="http://www.w3.org/2000/svg" xmlns:xlink="http://www.w3.org/1999/xlink"><g id="Guide"/><g id="Layer_2"><path d="M13.51,7.44h-1.05C12.2,5.24,10.31,3.51,8,3.51S3.8,5.24,3.54,7.44H2.49c-0.28,0-0.5,0.22-0.5,0.5v4.05   c0,0.28,0.22,0.5,0.5,0.5h1.5c0.28,0,0.5-0.22,0.5-0.5V7.94c0-1.89,1.58-3.43,3.51-3.43s3.51,1.54,3.51,3.43v4.05   c0,0.28,0.22,0.5,0.5,0.5h1.5c0.28,0,0.5-0.22,0.5-0.5V7.94C14.01,7.66,13.78,7.44,13.51,7.44z M3.49,11.49h-0.5V8.44h0.5V11.49z    M13.01,11.49h-0.5V8.44h0.5V11.49z"/></g></svg>